<?xml version="1.0" standalone="no"?>
<!DOCTYPE svg PUBLIC "-//W3C//DTD SVG 20010904//EN"
 "http://www.w3.org/TR/2001/REC-SVG-20010904/DTD/svg10.dtd">
<svg version="1.0" xmlns="http://www.w3.org/2000/svg"
 width="700.000000pt" height="700.000000pt" viewBox="0 0 700.000000 700.000000"
 preserveAspectRatio="xMidYMid meet">
<metadata>
Created by potrace 1.11, written by Peter Selinger 2001-2013
</metadata>
<g transform="translate(0.000000,700.000000) scale(0.100000,-0.100000)"
fill="#000000" stroke="none">
<path d="M393 6921 c-11 -8 -93 -226 -137 -366 -62 -198 -130 -474 -151 -615
-3 -20 -8 -47 -10 -60 -3 -14 -8 -45 -11 -70 -3 -25 -8 -47 -9 -50 -2 -3 -6
-41 -10 -85 -3 -44 -8 -87 -10 -95 -4 -16 -14 -127 -20 -232 -5 -83 -5 -498 0
-568 2 -30 6 -82 10 -115 3 -34 8 -83 10 -110 10 -118 40 -316 70 -465 3 -14
7 -36 10 -50 16 -87 102 -402 145 -531 96 -288 272 -687 381 -867 21 -35 39
-66 39 -68 0 -2 33 -56 73 -120 39 -63 81 -130 92 -148 63 -101 248 -344 384
-501 106 -123 374 -393 466 -470 33 -27 69 -58 80 -69 73 -67 428 -330 500
-370 17 -9 59 -35 95 -58 417 -265 1072 -534 1498 -613 13 -2 32 -7 42 -10 37
-12 309 -60 391 -70 l55 -6 28 83 c16 46 35 97 42 113 48 113 165 543 198 735
3 19 8 46 11 60 3 13 7 40 10 60 3 20 8 47 10 60 3 14 7 43 9 65 3 22 7 63 11
90 12 101 15 122 22 205 9 113 10 620 0 740 -8 109 -15 179 -22 233 -3 20 -7
56 -10 80 -48 371 -154 777 -299 1146 -85 215 -211 478 -310 644 -25 43 -46
80 -46 82 0 2 -33 55 -73 117 -269 421 -538 734 -937 1092 -60 55 -284 232
-354 281 -31 22 -76 54 -99 71 -198 145 -643 388 -888 484 -30 12 -67 28 -84
35 -58 26 -314 114 -433 149 -170 50 -357 94 -512 122 -14 2 -34 6 -46 9 -11
2 -42 7 -68 10 -27 3 -67 10 -91 14 -24 4 -47 5 -52 2z"/>
<path d="M6350 5126 c-137 -47 -190 -68 -295 -116 -137 -62 -329 -162 -356
-186 -8 -8 -18 -14 -22 -14 -5 0 -87 -53 -197 -127 -250 -170 -607 -521 -780
-769 -85 -122 -140 -205 -140 -212 0 -4 20 -68 44 -142 24 -74 49 -155 56
-179 l12 -44 51 74 c69 98 223 275 316 364 141 135 357 299 491 372 30 16 80
44 110 61 76 42 225 107 344 149 116 41 100 51 175 -97 86 -166 199 -471 225
-605 2 -11 11 -54 19 -95 9 -41 19 -97 22 -125 4 -27 8 -57 10 -65 26 -99 26
-560 0 -725 -3 -16 -7 -48 -10 -69 -3 -21 -7 -48 -10 -60 -3 -12 -7 -32 -9
-46 -22 -124 -71 -293 -133 -455 -37 -97 -143 -314 -199 -409 -34 -58 -161
-246 -173 -256 -3 -3 -19 -23 -36 -45 -106 -143 -321 -350 -506 -487 -192
-143 -475 -290 -696 -362 -29 -10 -53 -22 -53 -27 0 -6 -22 -71 -50 -146 -27
-75 -48 -139 -45 -141 5 -6 308 97 319 109 6 5 16 9 23 9 20 0 247 108 369
176 278 155 514 334 744 564 147 147 166 168 256 280 261 326 459 694 588
1095 34 105 87 311 100 385 3 19 8 46 11 60 58 286 66 729 19 1065 -53 381
-169 750 -340 1080 -91 176 -108 205 -119 204 -5 0 -66 -20 -135 -43z"/>
</g>
</svg>
