<svg id="Layer_1"
     data-name="Layer 1"
     xmlns="http://www.w3.org/2000/svg"
     viewBox="0 0 153.16 149.67">
    <defs><style>.cls-1{fill:#009444;}.cls-2{fill:#8dc63f;}</style></defs>
    <path class="cls-1"
          d="M152.21,65.58a75,75,0,0,0-9.78-26.86A75,75,0,0,0,99.77,71.1c1,2.61,1.81,5.28,2.58,8a57.57,57.57,0,0,1,31.23-23.25A60.23,60.23,0,0,1,141.07,77c4.57,29.55-12.92,57.45-39.93,66q-1,3.17-2.24,6.26l-.17.41.35-.1a75.2,75.2,0,0,0,53.14-84"/>
    <path class="cls-2" d="M96.9,70.8A110,110,0,0,0,41.38,9.86,108.86,108.86,0,0,0,7.91,0,109.62,109.62,0,0,0,95.13,149.59l.61.08.12-.3L96,149a109.32,109.32,0,0,0,7.62-40.23A109.38,109.38,0,0,0,96.9,70.8"/>
</svg>